<svg width="72" height="72" viewBox="0 0 72 72" fill="none" xmlns="http://www.w3.org/2000/svg">
<rect width="72" height="72" rx="36" fill="#4A9F26"/>
<path d="M43.0001 41.7981H44.8681C45.0933 41.7982 45.3164 41.7539 45.5246 41.6678C45.7327 41.5817 45.9218 41.4553 46.0811 41.2961C46.2404 41.1368 46.3667 40.9477 46.4528 40.7395C46.539 40.5314 46.5832 40.3083 46.5831 40.0831V35.2501C46.5831 34.82 46.4984 34.3942 46.3338 33.9969C46.1692 33.5997 45.9279 33.2387 45.6238 32.9347C45.3197 32.6306 44.9586 32.3895 44.5613 32.225C44.164 32.0605 43.7381 31.9759 43.3081 31.9761H38.3951L38.2981 39.8451" stroke="white" stroke-width="2" stroke-linecap="round" stroke-linejoin="round"/>
<path d="M32.7099 42.1751C34.2749 42.1751 35.8039 42.0151 37.2819 41.8541M27.3419 41.7671C26.9414 41.7238 26.5675 41.5459 26.2813 41.2625C25.995 40.9792 25.8133 40.6071 25.7659 40.2071C25.5769 38.6131 25.3589 36.9511 25.3589 35.2471C25.3589 33.5421 25.5749 31.8811 25.7639 30.2871C25.8119 29.8872 25.9939 29.5153 26.2803 29.232C26.5666 28.9487 26.9405 28.7708 27.3409 28.7271C29.0659 28.5411 30.8639 28.3181 32.7109 28.3181C34.5579 28.3181 36.3549 28.5411 38.0789 28.7261C38.4795 28.7696 38.8536 28.9474 39.1401 29.2307C39.4267 29.514 39.6088 29.886 39.6569 30.2861C39.7229 30.8501 39.7929 31.4211 39.8559 32.0001" stroke="white" stroke-width="2"/>
<path d="M40.061 45.0689C39.2928 45.0689 38.5561 44.7637 38.0129 44.2205C37.4697 43.6773 37.1645 42.9406 37.1645 42.1724C37.1645 41.4042 37.4697 40.6674 38.0129 40.1242C38.5561 39.581 39.2928 39.2759 40.061 39.2759C40.8294 39.2759 41.5662 39.5811 42.1095 40.1244C42.6528 40.6677 42.958 41.4045 42.958 42.1729C42.958 42.9412 42.6528 43.6781 42.1095 44.2214C41.5662 44.7647 40.8294 45.0689 40.061 45.0689ZM29.832 45.0689C29.064 45.0689 28.3274 44.7638 27.7843 44.2207C27.2411 43.6776 26.936 42.9409 26.936 42.1729C26.936 41.4048 27.2411 40.6682 27.7843 40.1251C28.3274 39.582 29.064 39.2769 29.832 39.2769C30.6002 39.2769 31.337 39.582 31.8802 40.1252C32.4234 40.6684 32.7285 41.4052 32.7285 42.1734C32.7285 42.9416 32.4234 43.6783 31.8802 44.2215C31.337 44.7647 30.6002 45.0689 29.832 45.0689Z" stroke="white" stroke-width="2" stroke-linecap="round" stroke-linejoin="round"/>
</svg>
