<svg width="72" height="72" viewBox="0 0 72 72" fill="none" xmlns="http://www.w3.org/2000/svg">
<rect width="72" height="72" rx="36" fill="#4A9F26"/>
<path fill-rule="evenodd" clip-rule="evenodd" d="M40.8901 45.9749C39.5651 46.9489 37.7141 46.8749 36.4991 45.7659C33.062 42.6276 29.7935 39.3096 26.7071 35.8259C26.3259 35.4026 26.0658 34.8845 25.9541 34.3259C25.5601 32.2929 24.7271 27.2219 25.9761 25.9719C27.2261 24.7219 32.2961 25.5559 34.3281 25.9499C34.8881 26.0609 35.4061 26.3209 35.8301 26.7019C39.3138 29.7883 42.6318 33.0568 45.7701 36.4939C46.8791 37.7079 46.9501 39.5609 45.9791 40.8859C45.2781 41.8409 44.5371 42.7999 43.6691 43.6659C42.8041 44.5309 41.8461 45.2729 40.8911 45.9739L40.8901 45.9749ZM33.4581 30.5229C33.6595 30.7132 33.8208 30.942 33.9323 31.1958C34.0438 31.4495 34.1032 31.723 34.1072 32.0001C34.1112 32.2772 34.0595 32.5523 33.9553 32.8092C33.8511 33.066 33.6964 33.2993 33.5005 33.4953C33.3046 33.6913 33.0713 33.846 32.8145 33.9503C32.5578 34.0546 32.2827 34.1064 32.0056 34.1025C31.7284 34.0986 31.4549 34.0392 31.2011 33.9278C30.9474 33.8164 30.7185 33.6553 30.5281 33.4539C30.1573 33.0617 29.9541 32.5405 29.9616 32.0008C29.9691 31.4612 30.1868 30.9458 30.5683 30.5641C30.9499 30.1824 31.4652 29.9646 32.0048 29.9569C32.5445 29.9492 33.0658 30.1523 33.4581 30.5229Z" stroke="white" stroke-width="2"/>
</svg>
