<svg width="72" height="72" viewBox="0 0 72 72" fill="none" xmlns="http://www.w3.org/2000/svg">
<rect width="72" height="72" rx="36" fill="#4A9F26"/>
<path d="M27.236 42.182C27.3791 43.379 27.944 44.4859 28.8293 45.3042C29.7146 46.1224 30.8625 46.5985 32.067 46.647C34.6879 46.7371 37.3111 46.7367 39.932 46.646C41.1365 46.5977 42.2843 46.1219 43.1697 45.3038C44.055 44.4857 44.6199 43.3789 44.763 42.182C44.8675 41.3155 44.9225 40.4438 44.928 39.571C44.928 38.69 44.861 37.819 44.763 36.961C44.6202 35.7641 44.0555 34.6572 43.1704 33.839C42.2852 33.0207 41.1375 32.5446 39.933 32.496C38.622 32.45 37.311 32.426 36 32.427C34.6887 32.4266 33.3775 32.4496 32.067 32.496C30.8624 32.5446 29.7146 33.0209 28.8294 33.8394C27.9442 34.6578 27.3797 35.7649 27.237 36.962C27.1329 37.8279 27.0779 38.699 27.072 39.571C27.072 40.454 27.139 41.326 27.236 42.182Z" stroke="white" stroke-width="2"/>
<path d="M41 32.4299V30.2849C40.9999 29.6283 40.8705 28.9781 40.6192 28.3715C40.3679 27.7649 39.9995 27.2138 39.5352 26.7495C38.5974 25.8119 37.3256 25.2853 35.9995 25.2854C34.6734 25.2855 33.4017 25.8124 32.4641 26.7502C31.5265 27.688 30.9999 28.9598 31 30.2859V32.4299" stroke="white" stroke-width="2" stroke-linecap="round" stroke-linejoin="round"/>
<path d="M35.9999 41.714C36.5683 41.714 37.1134 41.4882 37.5153 41.0863C37.9172 40.6844 38.1429 40.1393 38.1429 39.571C38.1429 39.0026 37.9172 38.4575 37.5153 38.0556C37.1134 37.6538 36.5683 37.428 35.9999 37.428C35.4316 37.428 34.8865 37.6538 34.4846 38.0556C34.0827 38.4575 33.8569 39.0026 33.8569 39.571C33.8569 40.1393 34.0827 40.6844 34.4846 41.0863C34.8865 41.4882 35.4316 41.714 35.9999 41.714Z" stroke="white" stroke-width="2"/>
</svg>
