<svg width="80" height="80" viewBox="0 0 80 80" fill="none" xmlns="http://www.w3.org/2000/svg">
<rect width="80" height="80" rx="40" fill="#4A9F26"/>
<path fill-rule="evenodd" clip-rule="evenodd" d="M46.52 53.3C44.7533 54.5987 42.2853 54.5 40.6653 53.0213C36.0825 48.837 31.7245 44.413 27.6093 39.768C27.101 39.2037 26.7542 38.5128 26.6053 37.768C26.08 35.0573 24.9693 28.296 26.6346 26.6293C28.3013 24.9627 35.0613 26.0747 37.7706 26.6C38.5173 26.748 39.208 27.0947 39.7733 27.6027C44.4183 31.7178 48.8423 36.0759 53.0266 40.6587C54.5053 42.2773 54.6 44.748 53.3053 46.5147C52.3706 47.788 51.3826 49.0667 50.2253 50.2213C49.072 51.3747 47.7946 52.364 46.5213 53.2987L46.52 53.3ZM36.6106 32.6973C36.8792 32.9511 37.0942 33.2562 37.2429 33.5945C37.3915 33.9328 37.4708 34.2975 37.4761 34.667C37.4814 35.0365 37.4125 35.4033 37.2736 35.7457C37.1346 36.0881 36.9284 36.3992 36.6672 36.6605C36.4059 36.9219 36.0949 37.1282 35.7525 37.2672C35.4102 37.4063 35.0434 37.4753 34.6739 37.4702C34.3044 37.465 33.9397 37.3858 33.6013 37.2373C33.263 37.0887 32.9578 36.8739 32.704 36.6053C32.2096 36.0825 31.9386 35.3874 31.9487 34.6679C31.9587 33.9484 32.2489 33.2612 32.7576 32.7523C33.2663 32.2434 33.9535 31.953 34.673 31.9427C35.3925 31.9324 36.0876 32.2032 36.6106 32.6973Z" stroke="white" stroke-width="2.66667"/>
</svg>
