<svg width="17" height="16" viewBox="0 0 17 16" fill="none" xmlns="http://www.w3.org/2000/svg">
<path d="M16.3829 6.13785C16.3829 6.27699 16.3007 6.42877 16.1362 6.59321L12.6926 9.95147L13.5084 14.6948C13.5148 14.739 13.5179 14.8023 13.5179 14.8845C13.5179 15.0173 13.4847 15.1296 13.4183 15.2213C13.3519 15.313 13.2555 15.3588 13.129 15.3588C13.0088 15.3588 12.8823 15.3209 12.7495 15.245L8.49003 13.0062L4.23054 15.245C4.0914 15.3209 3.96491 15.3588 3.85107 15.3588C3.71826 15.3588 3.61865 15.313 3.55225 15.2213C3.48584 15.1296 3.45264 15.0173 3.45264 14.8845C3.45264 14.8466 3.45896 14.7833 3.47161 14.6948L4.28746 9.95147L0.834333 6.59321C0.676223 6.42245 0.597168 6.27066 0.597168 6.13785C0.597168 5.90385 0.774251 5.75839 1.12842 5.70147L5.89069 5.00895L8.02518 0.69254C8.14535 0.433239 8.30029 0.303589 8.49003 0.303589C8.67976 0.303589 8.83471 0.433239 8.95487 0.69254L11.0894 5.00895L15.8516 5.70147C16.2058 5.75839 16.3829 5.90385 16.3829 6.13785Z" fill="black"/>
</svg>
