<svg width="262" height="62" viewBox="0 0 262 62" fill="none" xmlns="http://www.w3.org/2000/svg">
<path d="M47.4985 25.7464L25.4616 32.61V35.1639L47.4985 28.4599L70.0565 35.1639V32.61L47.4985 25.7464Z" fill="#11A82D"/>
<path d="M1.93567 23.6713L3.42466 20.9578L14.592 22.714C15.9321 20.7985 19.5354 18.3081 23.2281 23.6713L41.2448 25.7464L23.2281 31.0138V34.0466L13.6986 33.4036L14.592 37.3986L16.081 39.9525H24.2704L25.4616 37.3986H37.8201L40.3514 40.9102L37.0756 53.9989H33.0554L37.0756 39.9525H28.4395C27.4866 41.9956 25.263 42.5064 24.2704 42.5064C22.0865 42.666 17.0935 42.8894 14.592 42.5064C12.0905 42.1233 11.0681 39.7928 10.8696 38.6755V33.2127L1.93567 32.61L0 31.0138L16.081 28.4599V32.61H20.399L19.6545 28.3003L29.6307 26.7041H19.6545C19.3071 24.4743 18.106 21.3525 16.081 26.7041L1.93567 23.6713Z" fill="#11A82D"/>
<path d="M48.1685 25.7464L70.2054 32.61V35.1639L48.1685 28.4599L25.6105 35.1639V32.61L48.1685 25.7464Z" fill="#11A82D"/>
<path d="M93.7313 23.6713L92.2423 20.9578L81.075 22.714C79.7349 20.7985 76.1316 18.3081 72.4389 23.6713L54.4222 25.7464L72.4389 31.0138V34.0466L81.9684 33.4036L81.075 37.3986L79.586 39.9525H71.3966L70.2054 37.3986H57.8469L55.3156 40.9102L58.5914 53.9989H62.6116L58.5914 39.9525H67.2275C68.1804 41.9956 70.404 42.5064 71.3966 42.5064C73.5804 42.666 78.5735 42.8894 81.075 42.5064C83.5765 42.1233 84.5989 39.7928 84.7974 38.6755V33.2127L93.7313 32.61L95.667 31.0138L79.586 28.4599V32.61H75.268L76.0124 28.3003L66.0363 26.7041H76.0124C76.3599 24.4743 77.561 21.3525 79.586 26.7041L93.7313 23.6713Z" fill="#11A82D"/>
<path d="M47.9456 41.9556C50.6591 41.9558 52.8586 44.3142 52.8586 47.2231C52.8586 50.132 50.659 52.4905 47.9456 52.4907C45.2319 52.4907 43.0316 50.1322 43.0315 47.2231C43.0315 44.314 45.2318 41.9556 47.9456 41.9556ZM48.0188 44.4722C46.6417 44.4722 45.5247 45.6688 45.5247 47.145C45.5247 48.6213 46.6417 49.8179 48.0188 49.8179C49.3958 49.8178 50.512 48.6212 50.512 47.145C50.512 45.6688 49.3958 44.4723 48.0188 44.4722Z" fill="#11A82D"/>
<path d="M62.8352 23.041C62.8351 18.7867 61.2585 14.7065 58.4524 11.6982C55.6461 8.68984 51.8391 7 47.8704 7C43.9017 7.00009 40.0956 8.68992 37.2893 11.6982C34.4831 14.7065 32.9066 18.7866 32.9065 23.041H36.0481C36.0603 19.7105 37.2986 16.5191 39.4963 14.1631C41.705 11.7954 44.7009 10.4658 47.8245 10.4658C50.948 10.4658 53.9439 11.7954 56.1526 14.1631C58.3503 16.5191 59.5886 19.7105 59.6008 23.041H62.8352ZM59.6008 23.041H36.0481C36.048 23.0576 36.0471 23.0742 36.0471 23.0908H59.6018C59.6018 23.0742 59.6009 23.0576 59.6008 23.041Z" fill="#11A82D"/>
<path d="M57.6233 23.1211C57.6233 20.3695 56.6043 17.7299 54.7893 15.7842C52.9743 13.8385 50.5123 12.7452 47.9456 12.7451C45.3787 12.7451 42.9168 13.8385 41.1018 15.7842C39.2868 17.7299 38.2668 20.3694 38.2668 23.1211H40.2991C40.307 20.9671 41.1081 18.9027 42.5295 17.3789C43.958 15.8478 45.8953 14.9873 47.9153 14.9873C49.9353 14.9873 51.8726 15.8478 53.301 17.3789C54.7224 18.9027 55.5236 20.9671 55.5315 23.1211H57.6233ZM55.5315 23.1211H40.2991C40.299 23.1318 40.2981 23.1426 40.2981 23.1533H55.5325C55.5325 23.1426 55.5315 23.1318 55.5315 23.1211Z" fill="#11A82D"/>
<path d="M126.956 14.728L117.992 40H110.288L101.324 14.728H107.876L114.14 33.808L120.44 14.728H126.956ZM145.261 35.536H135.829L134.317 40H127.873L137.017 14.728H144.145L153.289 40H146.773L145.261 35.536ZM143.677 30.784L140.545 21.532L137.449 30.784H143.677ZM171.804 35.536H162.372L160.86 40H154.416L163.56 14.728H170.688L179.832 40H173.316L171.804 35.536ZM170.22 30.784L167.088 21.532L163.992 30.784H170.22ZM204.287 14.728L195.539 31.648V40H189.383V31.648L180.635 14.728H187.619L192.515 25.312L197.375 14.728H204.287ZM212.815 14.728V29.848C212.815 31.36 213.187 32.524 213.931 33.34C214.675 34.156 215.767 34.564 217.207 34.564C218.647 34.564 219.751 34.156 220.519 33.34C221.287 32.524 221.671 31.36 221.671 29.848V14.728H227.827V29.812C227.827 32.068 227.347 33.976 226.387 35.536C225.427 37.096 224.131 38.272 222.499 39.064C220.891 39.856 219.091 40.252 217.099 40.252C215.107 40.252 213.319 39.868 211.735 39.1C210.175 38.308 208.939 37.132 208.027 35.572C207.115 33.988 206.659 32.068 206.659 29.812V14.728H212.815Z" fill="#269D01"/>
<path d="M110.476 57.077C109.911 57.077 109.405 56.9853 108.958 56.802C108.511 56.6187 108.151 56.3473 107.88 55.988C107.616 55.6287 107.477 55.196 107.462 54.69H109.464C109.493 54.976 109.592 55.196 109.761 55.35C109.93 55.4967 110.15 55.57 110.421 55.57C110.7 55.57 110.92 55.5077 111.081 55.383C111.242 55.251 111.323 55.0713 111.323 54.844C111.323 54.6533 111.257 54.4957 111.125 54.371C111 54.2463 110.843 54.1437 110.652 54.063C110.469 53.9823 110.205 53.8907 109.86 53.788C109.361 53.634 108.954 53.48 108.639 53.326C108.324 53.172 108.052 52.9447 107.825 52.644C107.598 52.3433 107.484 51.951 107.484 51.467C107.484 50.7483 107.744 50.1873 108.265 49.784C108.786 49.3733 109.464 49.168 110.3 49.168C111.151 49.168 111.836 49.3733 112.357 49.784C112.878 50.1873 113.156 50.752 113.193 51.478H111.158C111.143 51.2287 111.052 51.0343 110.883 50.895C110.714 50.7483 110.498 50.675 110.234 50.675C110.007 50.675 109.823 50.7373 109.684 50.862C109.545 50.9793 109.475 51.1517 109.475 51.379C109.475 51.6283 109.592 51.8227 109.827 51.962C110.062 52.1013 110.428 52.2517 110.927 52.413C111.426 52.5817 111.829 52.743 112.137 52.897C112.452 53.051 112.724 53.2747 112.951 53.568C113.178 53.8613 113.292 54.239 113.292 54.701C113.292 55.141 113.178 55.5407 112.951 55.9C112.731 56.2593 112.408 56.5453 111.983 56.758C111.558 56.9707 111.055 57.077 110.476 57.077ZM123.261 50.862L121.6 57H119.521L118.553 53.018L117.552 57H115.484L113.812 50.862H115.693L116.562 55.251L117.596 50.862H119.587L120.632 55.229L121.49 50.862H123.261ZM124.924 50.224C124.594 50.224 124.323 50.1287 124.11 49.938C123.905 49.74 123.802 49.498 123.802 49.212C123.802 48.9187 123.905 48.6767 124.11 48.486C124.323 48.288 124.594 48.189 124.924 48.189C125.247 48.189 125.511 48.288 125.716 48.486C125.929 48.6767 126.035 48.9187 126.035 49.212C126.035 49.498 125.929 49.74 125.716 49.938C125.511 50.1287 125.247 50.224 124.924 50.224ZM125.859 50.862V57H123.978V50.862H125.859ZM130.302 52.424H129.29V57H127.409V52.424H126.727V50.862H127.409V50.686C127.409 49.9307 127.625 49.3587 128.058 48.97C128.491 48.574 129.125 48.376 129.961 48.376C130.1 48.376 130.203 48.3797 130.269 48.387V49.982C129.91 49.96 129.657 50.0113 129.51 50.136C129.363 50.2607 129.29 50.4843 129.29 50.807V50.862H130.302V52.424ZM134.607 55.405V57H133.65C132.968 57 132.436 56.835 132.055 56.505C131.674 56.1677 131.483 55.6213 131.483 54.866V52.424H130.735V50.862H131.483V49.366H133.364V50.862H134.596V52.424H133.364V54.888C133.364 55.0713 133.408 55.2033 133.496 55.284C133.584 55.3647 133.731 55.405 133.936 55.405H134.607ZM140.483 57.088C139.947 57.088 139.471 56.9963 139.053 56.813C138.635 56.6297 138.305 56.3803 138.063 56.065C137.821 55.7423 137.685 55.383 137.656 54.987H139.515C139.537 55.1997 139.636 55.372 139.812 55.504C139.988 55.636 140.204 55.702 140.461 55.702C140.695 55.702 140.875 55.658 141 55.57C141.132 55.4747 141.198 55.3537 141.198 55.207C141.198 55.031 141.106 54.9027 140.923 54.822C140.739 54.734 140.442 54.6387 140.032 54.536C139.592 54.4333 139.225 54.327 138.932 54.217C138.638 54.0997 138.385 53.92 138.173 53.678C137.96 53.4287 137.854 53.095 137.854 52.677C137.854 52.325 137.949 52.006 138.14 51.72C138.338 51.4267 138.624 51.1957 138.998 51.027C139.379 50.8583 139.83 50.774 140.351 50.774C141.121 50.774 141.726 50.9647 142.166 51.346C142.613 51.7273 142.87 52.2333 142.936 52.864H141.198C141.168 52.6513 141.073 52.4827 140.912 52.358C140.758 52.2333 140.552 52.171 140.296 52.171C140.076 52.171 139.907 52.215 139.79 52.303C139.672 52.3837 139.614 52.4973 139.614 52.644C139.614 52.82 139.705 52.952 139.889 53.04C140.079 53.128 140.373 53.216 140.769 53.304C141.223 53.4213 141.594 53.5387 141.88 53.656C142.166 53.766 142.415 53.9493 142.628 54.206C142.848 54.4553 142.961 54.7927 142.969 55.218C142.969 55.5773 142.866 55.9 142.661 56.186C142.463 56.4647 142.173 56.6847 141.792 56.846C141.418 57.0073 140.981 57.088 140.483 57.088ZM149.905 53.832C149.905 54.008 149.895 54.1913 149.873 54.382H145.616C145.645 54.7633 145.766 55.0567 145.979 55.262C146.199 55.46 146.466 55.559 146.782 55.559C147.251 55.559 147.577 55.361 147.761 54.965H149.763C149.66 55.3683 149.473 55.7313 149.202 56.054C148.938 56.3767 148.604 56.6297 148.201 56.813C147.797 56.9963 147.346 57.088 146.848 57.088C146.246 57.088 145.711 56.9597 145.242 56.703C144.772 56.4463 144.406 56.0797 144.142 55.603C143.878 55.1263 143.746 54.569 143.746 53.931C143.746 53.293 143.874 52.7357 144.131 52.259C144.395 51.7823 144.761 51.4157 145.231 51.159C145.7 50.9023 146.239 50.774 146.848 50.774C147.442 50.774 147.97 50.8987 148.432 51.148C148.894 51.3973 149.253 51.753 149.51 52.215C149.774 52.677 149.905 53.216 149.905 53.832ZM147.981 53.337C147.981 53.0143 147.871 52.7577 147.651 52.567C147.431 52.3763 147.156 52.281 146.826 52.281C146.51 52.281 146.243 52.3727 146.023 52.556C145.81 52.7393 145.678 52.9997 145.627 53.337H147.981ZM150.524 53.931C150.524 53.293 150.652 52.7357 150.909 52.259C151.173 51.7823 151.536 51.4157 151.998 51.159C152.467 50.9023 153.002 50.774 153.604 50.774C154.374 50.774 155.015 50.9757 155.529 51.379C156.049 51.7823 156.39 52.3507 156.552 53.084H154.55C154.381 52.6147 154.055 52.38 153.571 52.38C153.226 52.38 152.951 52.5157 152.746 52.787C152.54 53.051 152.438 53.4323 152.438 53.931C152.438 54.4297 152.54 54.8147 152.746 55.086C152.951 55.35 153.226 55.482 153.571 55.482C154.055 55.482 154.381 55.2473 154.55 54.778H156.552C156.39 55.4967 156.049 56.0613 155.529 56.472C155.008 56.8827 154.366 57.088 153.604 57.088C153.002 57.088 152.467 56.9597 151.998 56.703C151.536 56.4463 151.173 56.0797 150.909 55.603C150.652 55.1263 150.524 54.569 150.524 53.931ZM163.619 50.862V57H161.738V56.164C161.547 56.4353 161.287 56.6553 160.957 56.824C160.634 56.9853 160.275 57.066 159.879 57.066C159.41 57.066 158.995 56.9633 158.636 56.758C158.277 56.5453 157.998 56.241 157.8 55.845C157.602 55.449 157.503 54.9833 157.503 54.448V50.862H159.373V54.195C159.373 54.6057 159.479 54.9247 159.692 55.152C159.905 55.3793 160.191 55.493 160.55 55.493C160.917 55.493 161.206 55.3793 161.419 55.152C161.632 54.9247 161.738 54.6057 161.738 54.195V50.862H163.619ZM166.851 51.885C167.071 51.5477 167.346 51.2837 167.676 51.093C168.006 50.895 168.373 50.796 168.776 50.796V52.787H168.259C167.79 52.787 167.438 52.8897 167.203 53.095C166.968 53.293 166.851 53.645 166.851 54.151V57H164.97V50.862H166.851V51.885ZM175.461 53.832C175.461 54.008 175.45 54.1913 175.428 54.382H171.171C171.2 54.7633 171.321 55.0567 171.534 55.262C171.754 55.46 172.022 55.559 172.337 55.559C172.806 55.559 173.133 55.361 173.316 54.965H175.318C175.215 55.3683 175.028 55.7313 174.757 56.054C174.493 56.3767 174.159 56.6297 173.756 56.813C173.353 56.9963 172.902 57.088 172.403 57.088C171.802 57.088 171.266 56.9597 170.797 56.703C170.328 56.4463 169.961 56.0797 169.697 55.603C169.433 55.1263 169.301 54.569 169.301 53.931C169.301 53.293 169.429 52.7357 169.686 52.259C169.95 51.7823 170.317 51.4157 170.786 51.159C171.255 50.9023 171.794 50.774 172.403 50.774C172.997 50.774 173.525 50.8987 173.987 51.148C174.449 51.3973 174.808 51.753 175.065 52.215C175.329 52.677 175.461 53.216 175.461 53.832ZM173.536 53.337C173.536 53.0143 173.426 52.7577 173.206 52.567C172.986 52.3763 172.711 52.281 172.381 52.281C172.066 52.281 171.798 52.3727 171.578 52.556C171.365 52.7393 171.233 52.9997 171.182 53.337H173.536ZM181.282 57.088C180.746 57.088 180.27 56.9963 179.852 56.813C179.434 56.6297 179.104 56.3803 178.862 56.065C178.62 55.7423 178.484 55.383 178.455 54.987H180.314C180.336 55.1997 180.435 55.372 180.611 55.504C180.787 55.636 181.003 55.702 181.26 55.702C181.494 55.702 181.674 55.658 181.799 55.57C181.931 55.4747 181.997 55.3537 181.997 55.207C181.997 55.031 181.905 54.9027 181.722 54.822C181.538 54.734 181.241 54.6387 180.831 54.536C180.391 54.4333 180.024 54.327 179.731 54.217C179.437 54.0997 179.184 53.92 178.972 53.678C178.759 53.4287 178.653 53.095 178.653 52.677C178.653 52.325 178.748 52.006 178.939 51.72C179.137 51.4267 179.423 51.1957 179.797 51.027C180.178 50.8583 180.629 50.774 181.15 50.774C181.92 50.774 182.525 50.9647 182.965 51.346C183.412 51.7273 183.669 52.2333 183.735 52.864H181.997C181.967 52.6513 181.872 52.4827 181.711 52.358C181.557 52.2333 181.351 52.171 181.095 52.171C180.875 52.171 180.706 52.215 180.589 52.303C180.471 52.3837 180.413 52.4973 180.413 52.644C180.413 52.82 180.504 52.952 180.688 53.04C180.878 53.128 181.172 53.216 181.568 53.304C182.022 53.4213 182.393 53.5387 182.679 53.656C182.965 53.766 183.214 53.9493 183.427 54.206C183.647 54.4553 183.76 54.7927 183.768 55.218C183.768 55.5773 183.665 55.9 183.46 56.186C183.262 56.4647 182.972 56.6847 182.591 56.846C182.217 57.0073 181.78 57.088 181.282 57.088ZM188.669 57L186.799 54.426V57H184.918V48.86H186.799V53.359L188.658 50.862H190.979L188.427 53.942L191.001 57H188.669ZM197.988 50.862L194.138 59.915H192.114L193.522 56.791L191.025 50.862H193.126L194.545 54.701L195.953 50.862H197.988ZM200.549 51.731C200.725 51.445 200.978 51.214 201.308 51.038C201.638 50.862 202.016 50.774 202.441 50.774C202.947 50.774 203.406 50.9023 203.816 51.159C204.227 51.4157 204.55 51.7823 204.784 52.259C205.026 52.7357 205.147 53.2893 205.147 53.92C205.147 54.5507 205.026 55.108 204.784 55.592C204.55 56.0687 204.227 56.439 203.816 56.703C203.406 56.9597 202.947 57.088 202.441 57.088C202.009 57.088 201.631 57.0037 201.308 56.835C200.986 56.659 200.733 56.428 200.549 56.142V57H198.668V48.86H200.549V51.731ZM203.233 53.92C203.233 53.4507 203.101 53.084 202.837 52.82C202.581 52.5487 202.262 52.413 201.88 52.413C201.506 52.413 201.187 52.5487 200.923 52.82C200.667 53.0913 200.538 53.4617 200.538 53.931C200.538 54.4003 200.667 54.7707 200.923 55.042C201.187 55.3133 201.506 55.449 201.88 55.449C202.254 55.449 202.573 55.3133 202.837 55.042C203.101 54.7633 203.233 54.3893 203.233 53.92ZM208.928 57.088C208.327 57.088 207.784 56.9597 207.3 56.703C206.823 56.4463 206.446 56.0797 206.167 55.603C205.896 55.1263 205.76 54.569 205.76 53.931C205.76 53.3003 205.899 52.7467 206.178 52.27C206.457 51.786 206.838 51.4157 207.322 51.159C207.806 50.9023 208.349 50.774 208.95 50.774C209.551 50.774 210.094 50.9023 210.578 51.159C211.062 51.4157 211.443 51.786 211.722 52.27C212.001 52.7467 212.14 53.3003 212.14 53.931C212.14 54.5617 211.997 55.119 211.711 55.603C211.432 56.0797 211.047 56.4463 210.556 56.703C210.072 56.9597 209.529 57.088 208.928 57.088ZM208.928 55.46C209.287 55.46 209.592 55.328 209.841 55.064C210.098 54.8 210.226 54.4223 210.226 53.931C210.226 53.4397 210.101 53.062 209.852 52.798C209.61 52.534 209.309 52.402 208.95 52.402C208.583 52.402 208.279 52.534 208.037 52.798C207.795 53.0547 207.674 53.4323 207.674 53.931C207.674 54.4223 207.791 54.8 208.026 55.064C208.268 55.328 208.569 55.46 208.928 55.46ZM215.019 51.885C215.239 51.5477 215.514 51.2837 215.844 51.093C216.174 50.895 216.541 50.796 216.944 50.796V52.787H216.427C215.958 52.787 215.606 52.8897 215.371 53.095C215.136 53.293 215.019 53.645 215.019 54.151V57H213.138V50.862H215.019V51.885ZM221.583 50.796C222.302 50.796 222.874 51.0307 223.299 51.5C223.732 51.962 223.948 52.6 223.948 53.414V57H222.078V53.667C222.078 53.2563 221.972 52.9373 221.759 52.71C221.546 52.4827 221.26 52.369 220.901 52.369C220.542 52.369 220.256 52.4827 220.043 52.71C219.83 52.9373 219.724 53.2563 219.724 53.667V57H217.843V50.862H219.724V51.676C219.915 51.4047 220.171 51.192 220.494 51.038C220.817 50.8767 221.18 50.796 221.583 50.796ZM231.041 53.832C231.041 54.008 231.03 54.1913 231.008 54.382H226.751C226.781 54.7633 226.902 55.0567 227.114 55.262C227.334 55.46 227.602 55.559 227.917 55.559C228.387 55.559 228.713 55.361 228.896 54.965H230.898C230.796 55.3683 230.609 55.7313 230.337 56.054C230.073 56.3767 229.74 56.6297 229.336 56.813C228.933 56.9963 228.482 57.088 227.983 57.088C227.382 57.088 226.847 56.9597 226.377 56.703C225.908 56.4463 225.541 56.0797 225.277 55.603C225.013 55.1263 224.881 54.569 224.881 53.931C224.881 53.293 225.01 52.7357 225.266 52.259C225.53 51.7823 225.897 51.4157 226.366 51.159C226.836 50.9023 227.375 50.774 227.983 50.774C228.577 50.774 229.105 50.8987 229.567 51.148C230.029 51.3973 230.389 51.753 230.645 52.215C230.909 52.677 231.041 53.216 231.041 53.832ZM229.116 53.337C229.116 53.0143 229.006 52.7577 228.786 52.567C228.566 52.3763 228.291 52.281 227.961 52.281C227.646 52.281 227.378 52.3727 227.158 52.556C226.946 52.7393 226.814 52.9997 226.762 53.337H229.116Z" fill="black"/>
</svg>
