<svg width="17" height="17" viewBox="0 0 17 17" fill="none" xmlns="http://www.w3.org/2000/svg">
<path fill-rule="evenodd" clip-rule="evenodd" d="M8.48941 0.00231934C9.52271 0.00231934 11.0917 2.21749 11.0917 2.21749C11.0917 2.21749 13.7702 1.75786 14.5 2.48416C15.2307 3.21945 14.7719 5.89281 14.7719 5.89281C14.7719 5.89281 16.99 7.46466 16.99 8.49419C16.99 9.53301 14.7719 11.0956 14.7719 11.0956C14.7719 11.0956 15.2307 13.7794 14.5 14.5057C13.7702 15.241 11.0917 14.7813 11.0917 14.7813C11.0917 14.7813 9.52271 16.9965 8.48941 16.9965C7.45611 16.9965 5.88744 14.7813 5.88744 14.7813C5.88744 14.7813 3.2109 15.2421 2.47908 14.5068C1.7493 13.7814 2.2069 11.0967 2.2069 11.0967C2.2069 11.0967 -0.0100098 9.53417 -0.0100098 8.49536C-0.0100098 7.46583 2.2069 5.89281 2.2069 5.89281C2.2069 5.89281 1.7493 3.21945 2.47908 2.48416C3.20974 1.75873 5.88744 2.21749 5.88744 2.21749C5.88744 2.21749 7.45727 0.00231934 8.48941 0.00231934Z" fill="black"/>
<path fill-rule="evenodd" clip-rule="evenodd" d="M8.38027 8.59776L11.0208 5.94734C11.1153 5.85287 11.2434 5.7998 11.377 5.7998C11.5106 5.7998 11.6387 5.85287 11.7332 5.94734L12.4453 6.6629C12.5398 6.75794 12.5928 6.88651 12.5928 7.02054C12.5928 7.15456 12.5398 7.28313 12.4453 7.37817L8.92376 10.9072C8.91444 10.9214 8.90343 10.9344 8.89097 10.9458L8.17831 11.6611C8.13144 11.7083 8.07569 11.7457 8.01429 11.7713C7.95289 11.7968 7.88704 11.81 7.82053 11.81C7.75402 11.81 7.68817 11.7968 7.62677 11.7713C7.56536 11.7457 7.50962 11.7083 7.46275 11.6611L6.75096 10.9458C6.73851 10.9344 6.72759 10.9214 6.71846 10.9072L4.87529 9.05885C4.82853 9.01224 4.79144 8.95686 4.76612 8.89589C4.74081 8.83492 4.72778 8.76955 4.72778 8.70353C4.72778 8.63751 4.74081 8.57215 4.76612 8.51117C4.79144 8.4502 4.82853 8.39482 4.87529 8.34822L5.58708 7.63381C5.68159 7.53933 5.80977 7.48626 5.94341 7.48626C6.07705 7.48626 6.20522 7.53933 6.29974 7.63381L7.69546 9.03128L7.69837 9.03592L7.82111 9.1607V9.15605L9.24788 10.5724L8.38027 8.59776Z" fill="white"/>
</svg>
